# xmcd
# Track frame offsets:
# 150
# 14570
# 24864
# 39756
# 52712
# 67151
# 82181
# 95167
# 109281
# 120752
# 136495
# 152157
# 165535
# 185197
# 198254
# 209987
# 230174
# 242287
# 255223
#
# Disc length: 3585 seconds
# Revision: 2
# Processed by: cddbd v1.5.1PL2 Copyright (c) Steve Scherf et al.
# Submitted via: VisiTrax 2.10.0.248 - For more info visit www.synapsa.com
#
DISCID=030dff13
DTITLE=Bonde do Forro - Bonde do Forro - Vol 2 arrebenta coração
DYEAR=2005
DGENRE=Forro
TTITLE0=Sera
TTITLE1=Sempre Seu Homem
TTITLE2=Porque Brigamos
TTITLE3=Inevitavel
TTITLE4=Parabens Pro Nosso Amor
TTITLE5=So Falta Voce
TTITLE6=Mexe O Bumbum
TTITLE7=Bebo Porque Gosto de Beber
TTITLE8=Chico Rola
TTITLE9=Chefe do Puteiro
TTITLE10=Milk Shake
TTITLE11=Mordida de Amor
TTITLE12=Os Coracoes Nao Sao Iguais
TTITLE13=Verdura Minha
TTITLE14=Ta Liberado
TTITLE15=Se Nao Tivesse Ido
TTITLE16=Homem Galinha
TTITLE17=Tchaca na Buchacha
TTITLE18=O Grito da Galera
EXTD=
EXTT0=
EXTT1=
EXTT2=
EXTT3=
EXTT4=
EXTT5=
EXTT6=
EXTT7=
EXTT8=
EXTT9=
EXTT10=
EXTT11=
EXTT12=
EXTT13=
EXTT14=
EXTT15=
EXTT16=
EXTT17=
EXTT18=
PLAYORDER=
